<svg width="3900" height="1951" xmlns="http://www.w3.org/2000/svg" xmlns:xlink="http://www.w3.org/1999/xlink" xml:space="preserve" overflow="hidden"><defs><clipPath id="clip0"><rect x="665" y="691" width="3900" height="1951"/></clipPath></defs><g clip-path="url(#clip0)" transform="translate(-665 -691)"><rect x="666" y="692" width="3897" height="1948" fill="#FFFFFF"/><g><path d="M875.5 2399.58 4491.5 2399.58M875.5 2367.58 4491.5 2367.58M875.5 2335.58 4491.5 2335.58M875.5 2302.58 4491.5 2302.58M875.5 2238.57 4491.5 2238.57M875.5 2206.57 4491.5 2206.57M875.5 2174.57 4491.5 2174.57M875.5 2142.57 4491.5 2142.57M875.5 2077.57 4491.5 2077.57M875.5 2045.57 4491.5 2045.57M875.5 2013.57 4491.5 2013.57M875.5 1981.57 4491.5 1981.57M875.5 1917.56 4491.5 1917.56M875.5 1884.56 4491.5 1884.56M875.5 1852.56 4491.5 1852.56M875.5 1820.56 4491.5 1820.56M875.5 1756.56 4491.5 1756.56M875.5 1724.56 4491.5 1724.56M875.5 1692.56 4491.5 1692.56M875.5 1659.55 4491.5 1659.55M875.5 1595.55 4491.5 1595.55M875.5 1563.55 4491.5 1563.55M875.5 1531.55 4491.5 1531.55M875.5 1499.55 4491.5 1499.55M875.5 1434.55 4491.5 1434.55M875.5 1402.55 4491.5 1402.55M875.5 1370.55 4491.5 1370.55M875.5 1338.54 4491.5 1338.54M875.5 1274.54 4491.5 1274.54M875.5 1241.54 4491.5 1241.54M875.5 1209.54 4491.5 1209.54M875.5 1177.54 4491.5 1177.54M875.5 1113.54 4491.5 1113.54M875.5 1081.54 4491.5 1081.54M875.5 1048.53 4491.5 1048.53M875.5 1016.53 4491.5 1016.53" stroke="#F2F2F2" stroke-width="3.4375" stroke-linejoin="round" stroke-miterlimit="10" fill="none"/></g><g><path d="M875.5 2270.57 4491.5 2270.57M875.5 2110.57 4491.5 2110.57M875.5 1949.56 4491.5 1949.56M875.5 1788.56 4491.5 1788.56M875.5 1627.55 4491.5 1627.55M875.5 1466.55 4491.5 1466.55M875.5 1306.54 4491.5 1306.54M875.5 1145.54 4491.5 1145.54M875.5 984.5 4491.5 984.5" stroke="#D9D9D9" stroke-width="3.4375" stroke-linejoin="round" stroke-miterlimit="10" fill="none"/></g><g><path d="M955.532 984.5 955.532 2431.5M1035.53 984.5 1035.53 2431.5M1116.54 984.5 1116.54 2431.5M1196.54 984.5 1196.54 2431.5M1357.54 984.5 1357.54 2431.5M1437.55 984.5 1437.55 2431.5M1518.55 984.5 1518.55 2431.5M1598.55 984.5 1598.55 2431.5M1759.56 984.5 1759.56 2431.5M1839.56 984.5 1839.56 2431.5M1919.56 984.5 1919.56 2431.5M2000.57 984.5 2000.57 2431.5M2161.57 984.5 2161.57 2431.5M2241.57 984.5 2241.57 2431.5M2321.58 984.5 2321.58 2431.5M2402.58 984.5 2402.58 2431.5M2562.58 984.5 2562.58 2431.5M2643.59 984.5 2643.59 2431.5M2723.59 984.5 2723.59 2431.5M2803.59 984.5 2803.59 2431.5M2964.6 984.5 2964.6 2431.5M3045.6 984.5 3045.6 2431.5M3125.6 984.5 3125.6 2431.5M3205.61 984.5 3205.61 2431.5M3366.61 984.5 3366.61 2431.5M3446.61 984.5 3446.61 2431.5M3527.62 984.5 3527.62 2431.5M3607.62 984.5 3607.62 2431.5M3768.62 984.5 3768.62 2431.5M3848.63 984.5 3848.63 2431.5M3929.63 984.5 3929.63 2431.5M4009.63 984.5 4009.63 2431.5M4170.64 984.5 4170.64 2431.5M4250.64 984.5 4250.64 2431.5M4330.64 984.5 4330.64 2431.5M4411.65 984.5 4411.65 2431.5" stroke="#F2F2F2" stroke-width="3.4375" stroke-linejoin="round" stroke-miterlimit="10" fill="none"/></g><g><path d="M1276.54 984.5 1276.54 2431.5M1678.56 984.5 1678.56 2431.5M2080.57 984.5 2080.57 2431.5M2482.58 984.5 2482.58 2431.5M2884.59 984.5 2884.59 2431.5M3286.61 984.5 3286.61 2431.5M3688.62 984.5 3688.62 2431.5M4089.63 984.5 4089.63 2431.5M4491.5 984.5 4491.5 2431.5" stroke="#D9D9D9" stroke-width="3.4375" stroke-linejoin="round" stroke-miterlimit="10" fill="none"/></g><g><path d="M0 0 0.000360892 1447" stroke="#BFBFBF" stroke-width="3.4375" stroke-linejoin="round" stroke-miterlimit="10" fill="none" fill-rule="evenodd" transform="matrix(1 0 0 -1 875.5 2431.5)"/></g><g><path d="M862.5 2431.5 875.5 2431.5M862.5 2270.57 875.5 2270.57M862.5 2110.57 875.5 2110.57M862.5 1949.56 875.5 1949.56M862.5 1788.56 875.5 1788.56M862.5 1627.55 875.5 1627.55M862.5 1466.55 875.5 1466.55M862.5 1306.54 875.5 1306.54M862.5 1145.54 875.5 1145.54M862.5 984.5 875.5 984.5" stroke="#BFBFBF" stroke-width="3.4375" stroke-linejoin="round" stroke-miterlimit="10" fill="none"/></g><g><path d="M875.5 2431.5 4491.5 2431.5" stroke="#BFBFBF" stroke-width="3.4375" stroke-linejoin="round" stroke-miterlimit="10" fill="none" fill-rule="evenodd"/></g><g><path d="M875.5 2431.5 875.5 2444.5M1276.54 2431.5 1276.54 2444.5M1678.56 2431.5 1678.56 2444.5M2080.57 2431.5 2080.57 2444.5M2482.58 2431.5 2482.58 2444.5M2884.59 2431.5 2884.59 2444.5M3286.61 2431.5 3286.61 2444.5M3688.62 2431.5 3688.62 2444.5M4089.63 2431.5 4089.63 2444.5M4491.5 2431.5 4491.5 2444.5" stroke="#BFBFBF" stroke-width="3.4375" stroke-linejoin="round" stroke-miterlimit="10" fill="none"/></g><g><path d="M955.5 1185.5C982.286 1374.98 1009.07 1614.66 1035.86 1753.93 1062.21 1890.92 1089.87 1974.68 1116.22 2021.09 1136.45 2056.73 1176.35 2024.26 1196.58 2037.02 1223.36 2053.91 1250.15 2098.97 1276.94 2122.43 1303.72 2145.88 1330.51 2168.75 1357.29 2177.76 1384.08 2186.76 1410.87 2172.74 1437.65 2176.47 1464.44 2180.2 1491.23 2193.87 1518.01 2200.12 1544.8 2206.36 1571.59 2210.52 1598.37 2213.95 1625.16 2217.38 1651.94 2217.11 1678.73 2220.7 1705.52 2224.3 1732.3 2232.55 1759.09 2235.5 1785.88 2238.45 1812.66 2234.62 1839.45 2238.4 1866.23 2242.18 1893.02 2254.88 1919.81 2258.18 1946.59 2261.48 1973.38 2257.24 2000.17 2258.18 2026.95 2259.12 2053.74 2262.34 2080.53 2263.81 2107.31 2265.28 2134.1 2265.93 2160.88 2267.03 2187.67 2268.13 2214.46 2269.76 2241.24 2270.4 2268.03 2271.05 2294.82 2270.49 2321.6 2270.89 2348.39 2271.29 2375.18 2271.72 2401.96 2272.82 2428.75 2273.92 2455.53 2277.32 2482.32 2277.48 2509.11 2277.64 2535.89 2273.51 2562.68 2273.78 2589.47 2274.05 2616.25 2278.21 2643.04 2279.09 2669.82 2279.97 2696.61 2278.71 2723.4 2279.09 2750.18 2279.47 2776.97 2280.99 2803.76 2281.34 2830.54 2281.69 2857.33 2281.1 2884.12 2281.18 2910.9 2281.26 2937.69 2281.45 2964.47 2281.82 2991.26 2282.2 3018.05 2283 3044.83 2283.43 3071.62 2283.86 3098.41 2284.43 3125.19 2284.4 3151.98 2284.37 3178.76 2283.86 3205.55 2283.27 3232.34 2282.68 3259.12 2280.03 3285.91 2280.86 3312.7 2281.69 3339.48 2288.02 3366.27 2288.26 3393.06 2288.5 3419.84 2282.63 3446.63 2282.31 3473.41 2281.99 3500.2 2285.71 3526.99 2286.33 3553.77 2286.94 3580.56 2288.12 3607.35 2286.01 3634.13 2283.89 3660.92 2274.29 3687.71 2273.62 3714.49 2272.95 3741.28 2281.07 3768.06 2281.99 3794.85 2282.9 3821.64 2278.61 3848.42 2279.09 3875.21 2279.57 3902 2283.7 3928.78 2284.88 3955.57 2286.06 3982.35 2285.9 4009.14 2286.17 4035.93 2286.44 4062.71 2286.38 4089.5 2286.49" stroke="#156082" stroke-width="6.875" stroke-linecap="round" stroke-linejoin="round" stroke-miterlimit="10" fill="none"/></g><g><text fill="#595959" font-family="Aptos Narrow,Aptos Narrow_MSFontService,sans-serif" font-weight="400" font-stretch="semi-condensed" font-size="41" transform="matrix(1 0 0 1 816.2 2443)">0</text></g><g><text fill="#595959" font-family="Aptos Narrow,Aptos Narrow_MSFontService,sans-serif" font-weight="400" font-stretch="semi-condensed" font-size="41" transform="matrix(1 0 0 1 795.3 2282)">10</text></g><g><text fill="#595959" font-family="Aptos Narrow,Aptos Narrow_MSFontService,sans-serif" font-weight="400" font-stretch="semi-condensed" font-size="41" transform="matrix(1 0 0 1 795.3 2122)">20</text></g><g><text fill="#595959" font-family="Aptos Narrow,Aptos Narrow_MSFontService,sans-serif" font-weight="400" font-stretch="semi-condensed" font-size="41" transform="matrix(1 0 0 1 795.3 1961)">30</text></g><g><text fill="#595959" font-family="Aptos Narrow,Aptos Narrow_MSFontService,sans-serif" font-weight="400" font-stretch="semi-condensed" font-size="41" transform="matrix(1 0 0 1 795.3 1800)">40</text></g><g><text fill="#595959" font-family="Aptos Narrow,Aptos Narrow_MSFontService,sans-serif" font-weight="400" font-stretch="semi-condensed" font-size="41" transform="matrix(1 0 0 1 795.3 1639)">50</text></g><g><text fill="#595959" font-family="Aptos Narrow,Aptos Narrow_MSFontService,sans-serif" font-weight="400" font-stretch="semi-condensed" font-size="41" transform="matrix(1 0 0 1 795.3 1479)">60</text></g><g><text fill="#595959" font-family="Aptos Narrow,Aptos Narrow_MSFontService,sans-serif" font-weight="400" font-stretch="semi-condensed" font-size="41" transform="matrix(1 0 0 1 795.3 1318)">70</text></g><g><text fill="#595959" font-family="Aptos Narrow,Aptos Narrow_MSFontService,sans-serif" font-weight="400" font-stretch="semi-condensed" font-size="41" transform="matrix(1 0 0 1 795.3 1157)">80</text></g><g><text fill="#595959" font-family="Aptos Narrow,Aptos Narrow_MSFontService,sans-serif" font-weight="400" font-stretch="semi-condensed" font-size="41" transform="matrix(1 0 0 1 795.3 996)">90</text></g><g><text fill="#595959" font-family="Aptos Narrow,Aptos Narrow_MSFontService,sans-serif" font-weight="400" font-stretch="semi-condensed" font-size="41" transform="matrix(1 0 0 1 864.733 2496)">0</text></g><g><text fill="#595959" font-family="Aptos Narrow,Aptos Narrow_MSFontService,sans-serif" font-weight="400" font-stretch="semi-condensed" font-size="41" transform="matrix(1 0 0 1 1266.58 2496)">5</text></g><g><text fill="#595959" font-family="Aptos Narrow,Aptos Narrow_MSFontService,sans-serif" font-weight="400" font-stretch="semi-condensed" font-size="41" transform="matrix(1 0 0 1 1657.98 2496)">10</text></g><g><text fill="#595959" font-family="Aptos Narrow,Aptos Narrow_MSFontService,sans-serif" font-weight="400" font-stretch="semi-condensed" font-size="41" transform="matrix(1 0 0 1 2059.83 2496)">15</text></g><g><text fill="#595959" font-family="Aptos Narrow,Aptos Narrow_MSFontService,sans-serif" font-weight="400" font-stretch="semi-condensed" font-size="41" transform="matrix(1 0 0 1 2461.68 2496)">20</text></g><g><text fill="#595959" font-family="Aptos Narrow,Aptos Narrow_MSFontService,sans-serif" font-weight="400" font-stretch="semi-condensed" font-size="41" transform="matrix(1 0 0 1 2863.53 2496)">25</text></g><g><text fill="#595959" font-family="Aptos Narrow,Aptos Narrow_MSFontService,sans-serif" font-weight="400" font-stretch="semi-condensed" font-size="41" transform="matrix(1 0 0 1 3265.38 2496)">30</text></g><g><text fill="#595959" font-family="Aptos Narrow,Aptos Narrow_MSFontService,sans-serif" font-weight="400" font-stretch="semi-condensed" font-size="41" transform="matrix(1 0 0 1 3667.22 2496)">35</text></g><g><text fill="#595959" font-family="Aptos Narrow,Aptos Narrow_MSFontService,sans-serif" font-weight="400" font-stretch="semi-condensed" font-size="41" transform="matrix(1 0 0 1 4069.07 2496)">40</text></g><g><text fill="#595959" font-family="Aptos Narrow,Aptos Narrow_MSFontService,sans-serif" font-weight="400" font-stretch="semi-condensed" font-size="41" transform="matrix(1 0 0 1 4470.92 2496)">45</text></g><g><text fill="#595959" font-family="Aptos Narrow,Aptos Narrow_MSFontService,sans-serif" font-style="italic" font-weight="400" font-stretch="semi-condensed" font-size="48" transform="matrix(6.12323e-17 -1 1 6.12323e-17 767.8 1902)">Время расчета, мс</text></g><g><text fill="#595959" font-family="Aptos Narrow,Aptos Narrow_MSFontService,sans-serif" font-style="italic" font-weight="400" font-stretch="semi-condensed" font-size="50" transform="matrix(1 0 0 1 2402.61 2569)">Количество потоков, шт</text></g><g><text fill="#595959" font-family="Aptos Narrow,Aptos Narrow_MSFontService,sans-serif" font-weight="400" font-stretch="semi-condensed" font-size="83" transform="matrix(1 0 0 1 1077.72 803)">Зависимость времени расчета определенного интеграла от количества задействованных </text></g><g><text fill="#595959" font-family="Aptos Narrow,Aptos Narrow_MSFontService,sans-serif" font-weight="400" font-stretch="semi-condensed" font-size="83" transform="matrix(1 0 0 1 2429.92 904)">процессов</text></g><rect x="666.5" y="692.5" width="3897" height="1948" stroke="#D9D9D9" stroke-width="3.4375" stroke-linejoin="round" stroke-miterlimit="10" fill="none"/></g></svg>