<svg width="3770" height="1952" xmlns="http://www.w3.org/2000/svg" xmlns:xlink="http://www.w3.org/1999/xlink" xml:space="preserve" overflow="hidden"><defs><clipPath id="clip0"><rect x="82" y="36" width="3770" height="1952"/></clipPath></defs><g clip-path="url(#clip0)" transform="translate(-82 -36)"><rect x="82.9998" y="37.0001" width="3767" height="1949" fill="#FFFFFF"/><g><path d="M300.5 1739.56 3768.5 1739.56M300.5 1706.56 3768.5 1706.56M300.5 1673.56 3768.5 1673.56M300.5 1641.55 3768.5 1641.55M300.5 1576.55 3768.5 1576.55M300.5 1543.55 3768.5 1543.55M300.5 1511.55 3768.5 1511.55M300.5 1478.55 3768.5 1478.55M300.5 1413.55 3768.5 1413.55M300.5 1381.55 3768.5 1381.55M300.5 1348.54 3768.5 1348.54M300.5 1316.54 3768.5 1316.54M300.5 1251.54 3768.5 1251.54M300.5 1218.54 3768.5 1218.54M300.5 1186.54 3768.5 1186.54M300.5 1153.54 3768.5 1153.54M300.5 1088.54 3768.5 1088.54M300.5 1055.53 3768.5 1055.53M300.5 1023.53 3768.5 1023.53M300.5 990.533 3768.5 990.533M300.5 925.531 3768.5 925.531M300.5 893.53 3768.5 893.53M300.5 860.528 3768.5 860.528M300.5 828.527 3768.5 828.527M300.5 763.525 3768.5 763.525M300.5 730.524 3768.5 730.524M300.5 698.523 3768.5 698.523M300.5 665.522 3768.5 665.522M300.5 600.52 3768.5 600.52M300.5 568.519 3768.5 568.519M300.5 535.518 3768.5 535.518M300.5 503.517 3768.5 503.517M300.5 437.515 3768.5 437.515M300.5 405.513 3768.5 405.513M300.5 372.512 3768.5 372.512M300.5 340.511 3768.5 340.511" stroke="#F2F2F2" stroke-width="3.4375" stroke-linejoin="round" stroke-miterlimit="10" fill="none"/></g><g><path d="M300.5 1608.55 3768.5 1608.55M300.5 1446.55 3768.5 1446.55M300.5 1283.54 3768.5 1283.54M300.5 1121.54 3768.5 1121.54M300.5 958.532 3768.5 958.532M300.5 795.526 3768.5 795.526M300.5 633.521 3768.5 633.521M300.5 470.516 3768.5 470.516M300.5 307.5 3768.5 307.5" stroke="#D9D9D9" stroke-width="3.4375" stroke-linejoin="round" stroke-miterlimit="10" fill="none"/></g><g><path d="M387.513 307.5 387.513 1771.5M473.516 307.5 473.516 1771.5M560.519 307.5 560.519 1771.5M647.521 307.5 647.521 1771.5M820.527 307.5 820.527 1771.5M907.53 307.5 907.53 1771.5M994.533 307.5 994.533 1771.5M1080.54 307.5 1080.54 1771.5M1254.54 307.5 1254.54 1771.5M1340.54 307.5 1340.54 1771.5M1427.55 307.5 1427.55 1771.5M1514.55 307.5 1514.55 1771.5M1687.56 307.5 1687.56 1771.5M1774.56 307.5 1774.56 1771.5M1861.56 307.5 1861.56 1771.5M1947.56 307.5 1947.56 1771.5M2121.57 307.5 2121.57 1771.5M2207.57 307.5 2207.57 1771.5M2294.58 307.5 2294.58 1771.5M2381.58 307.5 2381.58 1771.5M2554.58 307.5 2554.58 1771.5M2641.59 307.5 2641.59 1771.5M2727.59 307.5 2727.59 1771.5M2814.59 307.5 2814.59 1771.5M2988.6 307.5 2988.6 1771.5M3074.6 307.5 3074.6 1771.5M3161.6 307.5 3161.6 1771.5M3248.61 307.5 3248.61 1771.5M3421.61 307.5 3421.61 1771.5M3508.62 307.5 3508.62 1771.5M3594.62 307.5 3594.62 1771.5M3681.62 307.5 3681.62 1771.5" stroke="#F2F2F2" stroke-width="3.4375" stroke-linejoin="round" stroke-miterlimit="10" fill="none"/></g><g><path d="M734.524 307.5 734.524 1771.5M1167.54 307.5 1167.54 1771.5M1600.55 307.5 1600.55 1771.5M2034.57 307.5 2034.57 1771.5M2467.58 307.5 2467.58 1771.5M2901.6 307.5 2901.6 1771.5M3334.61 307.5 3334.61 1771.5M3768.5 307.5 3768.5 1771.5" stroke="#D9D9D9" stroke-width="3.4375" stroke-linejoin="round" stroke-miterlimit="10" fill="none"/></g><g><path d="M0 0 0.000360892 1464" stroke="#BFBFBF" stroke-width="3.4375" stroke-linejoin="round" stroke-miterlimit="10" fill="none" fill-rule="evenodd" transform="matrix(1 0 0 -1 300.5 1771.5)"/></g><g><path d="M287.5 1771.5 300.5 1771.5M287.5 1608.55 300.5 1608.55M287.5 1446.55 300.5 1446.55M287.5 1283.54 300.5 1283.54M287.5 1121.54 300.5 1121.54M287.5 958.532 300.5 958.532M287.5 795.526 300.5 795.526M287.5 633.521 300.5 633.521M287.5 470.516 300.5 470.516M287.5 307.5 300.5 307.5" stroke="#BFBFBF" stroke-width="3.4375" stroke-linejoin="round" stroke-miterlimit="10" fill="none"/></g><g><path d="M300.5 1771.5 3768.5 1771.5" stroke="#BFBFBF" stroke-width="3.4375" stroke-linejoin="round" stroke-miterlimit="10" fill="none" fill-rule="evenodd"/></g><g><path d="M300.5 1771.5 300.5 1784.5M734.524 1771.5 734.524 1784.5M1167.54 1771.5 1167.54 1784.5M1600.55 1771.5 1600.55 1784.5M2034.57 1771.5 2034.57 1784.5M2467.58 1771.5 2467.58 1784.5M2901.6 1771.5 2901.6 1784.5M3334.61 1771.5 3334.61 1784.5M3768.5 1771.5 3768.5 1784.5" stroke="#BFBFBF" stroke-width="3.4375" stroke-linejoin="round" stroke-miterlimit="10" fill="none"/></g><g><path d="M322.5 511.5C329.724 703.027 336.947 945.309 344.171 1086.08 351.113 1221.37 358.9 1310.31 365.842 1356.14 367.863 1369.48 385.492 1367.46 387.513 1372.24 394.737 1389.31 401.961 1434.86 409.185 1458.57 416.408 1482.28 423.632 1505.39 430.856 1514.5 437.602 1523 445.78 1509.68 452.527 1513.2 459.75 1516.97 466.974 1530.78 474.198 1537.1 481.422 1543.41 488.645 1547.61 495.869 1551.08 503.093 1554.55 510.316 1554.28 517.541 1557.91 524.764 1561.54 531.988 1569.89 539.212 1572.87 546.435 1575.85 553.659 1571.97 560.883 1575.79 568.106 1579.62 575.33 1592.46 582.554 1595.79 589.778 1599.13 597.001 1594.84 604.225 1595.79 611.449 1596.74 618.672 1599.99 625.896 1601.48 633.12 1602.97 640.343 1603.62 647.567 1604.74 654.791 1605.85 662.015 1607.5 669.238 1608.15 676.462 1608.8 683.685 1608.23 690.909 1608.64 698.133 1609.04 705.357 1609.48 712.581 1610.59 719.804 1611.7 727.028 1615.14 734.252 1615.3 741.475 1615.47 748.699 1611.29 755.923 1611.56 763.146 1611.83 770.37 1616.03 777.594 1616.93 784.818 1617.82 792.041 1616.55 799.265 1616.93 806.489 1617.31 813.712 1618.85 820.937 1619.21 828.16 1619.56 835.384 1618.96 842.608 1619.04 849.831 1619.12 857.055 1619.31 864.279 1619.69 871.502 1620.07 878.726 1620.89 885.95 1621.32 893.174 1621.75 900.397 1622.32 907.621 1622.29 914.845 1622.27 922.068 1621.75 929.292 1621.16 936.516 1620.56 943.739 1617.88 950.963 1618.72 958.187 1619.56 965.411 1625.95 972.634 1626.2 979.858 1626.44 987.081 1620.51 994.305 1620.18 1001.53 1619.86 1008.75 1623.62 1015.98 1624.25 1023.2 1624.87 1030.42 1626.06 1037.65 1623.92 1044.87 1621.78 1052.09 1612.08 1059.32 1611.4 1066.54 1610.72 1073.77 1618.93 1080.99 1619.86 1088.21 1620.78 1095.44 1616.44 1102.66 1616.93 1109.88 1617.42 1117.11 1621.59 1124.33 1622.78 1131.56 1623.97 1138.78 1623.81 1146 1624.08 1153.23 1624.35 1160.45 1623.92 1167.67 1624.41 1174.9 1624.9 1182.12 1627.12 1189.35 1627.01 1196.57 1626.9 1203.79 1623.97 1211.02 1623.76 1218.24 1623.54 1225.46 1625.03 1232.69 1625.71 1239.91 1626.39 1247.14 1628.5 1254.36 1627.82 1261.58 1627.15 1268.81 1622.08 1276.03 1621.64 1283.25 1621.21 1290.48 1624.81 1297.7 1625.22 1304.93 1625.63 1312.15 1624.22 1319.37 1624.08 1326.6 1623.95 1333.82 1624.73 1341.04 1624.41 1348.27 1624.08 1355.49 1622.02 1362.71 1622.13 1369.94 1622.24 1377.16 1625.03 1384.39 1625.06 1391.61 1625.09 1398.83 1622.81 1406.06 1622.29 1413.28 1621.78 1420.5 1621.7 1427.73 1621.97 1434.95 1622.24 1442.18 1624.03 1449.4 1623.92 1456.62 1623.81 1463.85 1621.35 1471.07 1621.32 1478.29 1621.29 1485.52 1623.95 1492.74 1623.76 1499.97 1623.57 1507.19 1620.56 1514.41 1620.18 1521.64 1619.8 1528.86 1622.16 1536.08 1621.48 1543.31 1620.8 1550.53 1615.79 1557.76 1616.12 1564.98 1616.44 1572.2 1622.94 1579.43 1623.43 1586.65 1623.92 1593.87 1619.5 1601.1 1619.04 1608.32 1618.58 1615.54 1620.34 1622.77 1620.67 1629.99 1620.99 1637.22 1621.48 1644.44 1620.99 1651.66 1620.51 1658.89 1618.04 1666.11 1617.74 1673.33 1617.44 1680.56 1619.26 1687.78 1619.21 1695.01 1619.15 1702.23 1618.55 1709.45 1617.42 1716.68 1616.28 1723.9 1613.08 1731.12 1612.38 1738.35 1611.67 1745.57 1612.51 1752.8 1613.19 1760.02 1613.87 1767.24 1615.9 1774.47 1616.44 1781.69 1616.98 1788.91 1616.63 1796.14 1616.44 1803.36 1616.25 1810.59 1615.41 1817.81 1615.3 1825.03 1615.19 1832.26 1616.12 1839.48 1615.79 1846.7 1615.47 1853.93 1613.76 1861.15 1613.35 1868.38 1612.95 1875.6 1613.33 1882.82 1613.35 1890.05 1613.38 1897.27 1614.11 1904.49 1613.51 1911.72 1612.92 1918.94 1609.94 1926.16 1609.78 1933.39 1609.61 1940.61 1613.27 1947.84 1612.54 1955.06 1611.81 1962.28 1606.52 1969.51 1605.39 1976.73 1604.25 1983.95 1605.14 1991.18 1605.71 1998.4 1606.28 2005.63 1608.47 2012.85 1608.8 2020.07 1609.12 2027.3 1607.85 2034.52 1607.66 2041.74 1607.47 2048.97 1607.12 2056.19 1607.66 2063.42 1608.2 2070.64 1610.97 2077.86 1610.91 2085.09 1610.86 2092.31 1608.1 2099.53 1607.34 2106.76 1606.58 2113.98 1606.47 2121.2 1606.36 2128.43 1606.25 2135.65 1606.63 2142.88 1606.69 2150.1 1606.74 2157.32 1607.39 2164.55 1606.69 2171.77 1605.98 2178.99 1602.87 2186.22 1602.46 2193.44 1602.05 2200.67 1603.89 2207.89 1604.25 2215.11 1604.6 2222.34 1605.01 2229.56 1604.57 2236.78 1604.14 2244.01 1601.97 2251.23 1601.65 2258.46 1601.32 2265.68 1602.84 2272.9 1602.62 2280.13 1602.4 2287.35 1602.57 2294.57 1600.35 2301.8 1598.12 2309.02 1589.75 2316.25 1589.29 2323.47 1588.83 2330.69 1596.01 2337.92 1597.58 2345.14 1599.15 2352.36 1598.53 2359.59 1598.72 2366.81 1598.91 2374.03 1598.77 2381.26 1598.72 2388.48 1598.66 2395.71 1598.77 2402.93 1598.39 2410.15 1598.01 2417.38 1596.71 2424.6 1596.44 2431.82 1596.17 2439.05 1596.77 2446.27 1596.77 2453.5 1596.77 2460.72 1596.42 2467.94 1596.44 2475.17 1596.47 2482.39 1596.99 2489.61 1596.93 2496.84 1596.88 2504.06 1596.63 2511.29 1596.12 2518.51 1595.6 2525.73 1594.63 2532.96 1593.84 2540.18 1593.06 2547.4 1591.59 2554.63 1591.4 2561.85 1591.21 2569.07 1592.81 2576.3 1592.7 2583.52 1592.6 2590.75 1590.56 2597.97 1590.75 2605.19 1590.94 2612.42 1593.84 2619.64 1593.84 2626.86 1593.84 2634.09 1591.05 2641.31 1590.75 2648.54 1590.45 2655.76 1592.51 2662.98 1592.05 2670.21 1591.59 2677.43 1588.42 2684.65 1587.99 2691.88 1587.55 2699.1 1589.02 2706.33 1589.45 2713.55 1589.89 2720.77 1590.35 2728 1590.59 2735.22 1590.83 2742.44 1592.13 2749.67 1590.92 2756.89 1589.7 2764.12 1588.64 2771.34 1583.27 2778.56 1577.91 2785.79 1564.44 2793.01 1558.72 2800.23 1553.01 2807.46 1551.38 2814.68 1548.97 2821.91 1546.56 2829.13 1544.04 2836.35 1544.25 2843.58 1544.47 2850.8 1549.1 2858.02 1550.27 2865.25 1551.43 2872.47 1551.22 2879.69 1551.24 2886.92 1551.27 2894.14 1550.92 2901.37 1550.43 2908.59 1549.94 2915.81 1548.72 2923.04 1548.32 2930.26 1547.91 2937.48 1549.89 2944.71 1547.99 2951.93 1546.1 2959.16 1537.67 2966.38 1536.94 2973.6 1536.2 2980.83 1541.22 2988.05 1543.6 2995.27 1545.99 3002.5 1550.3 3009.72 1551.24 3016.95 1552.19 3024.17 1550.3 3031.39 1549.29 3038.62 1548.29 3045.84 1545.39 3053.06 1545.23 3060.29 1545.07 3067.51 1548.51 3074.74 1548.32 3081.96 1548.13 3089.18 1544.55 3096.41 1544.09 3103.63 1543.63 3110.85 1544.96 3118.08 1545.55 3125.3 1546.15 3132.52 1547.75 3139.75 1547.67 3146.97 1547.59 3154.2 1545.34 3161.42 1545.07 3168.64 1544.79 3175.87 1546.1 3183.09 1546.04 3190.31 1545.99 3197.54 1545.69 3204.76 1544.74 3211.99 1543.79 3219.21 1542.08 3226.43 1540.35 3233.66 1538.62 3240.88 1535.09 3248.1 1534.34 3255.33 1533.58 3262.55 1534.31 3269.78 1535.8 3277 1537.29 3284.22 1542.3 3291.45 1543.28 3298.67 1544.25 3305.89 1542.41 3313.12 1541.65 3320.34 1540.89 3327.57 1539.05 3334.79 1538.72 3342.01 1538.4 3349.24 1539.51 3356.46 1539.7 3363.68 1539.89 3370.91 1540.16 3378.13 1539.86 3385.35 1539.56 3392.58 1538.45 3399.8 1537.91 3407.03 1537.37 3414.25 1536.75 3421.47 1536.61 3428.7 1536.48 3435.92 1537.4 3443.14 1537.1 3450.37 1536.8 3457.59 1535.01 3464.82 1534.82 3472.04 1534.63 3479.26 1536.2 3486.49 1535.96 3493.71 1535.72 3500.93 1533.82 3508.16 1533.36 3515.38 1532.9 3522.61 1533.63 3529.83 1533.2 3537.05 1532.76 3544.28 1531.57 3551.5 1530.76" stroke="#156082" stroke-width="6.875" stroke-linecap="round" stroke-linejoin="round" stroke-miterlimit="10" fill="none"/></g><g><text fill="#595959" font-family="Aptos Narrow,Aptos Narrow_MSFontService,sans-serif" font-weight="400" font-stretch="semi-condensed" font-size="41" transform="matrix(1 0 0 1 241.587 1783)">0</text></g><g><text fill="#595959" font-family="Aptos Narrow,Aptos Narrow_MSFontService,sans-serif" font-weight="400" font-stretch="semi-condensed" font-size="41" transform="matrix(1 0 0 1 220.687 1621)">10</text></g><g><text fill="#595959" font-family="Aptos Narrow,Aptos Narrow_MSFontService,sans-serif" font-weight="400" font-stretch="semi-condensed" font-size="41" transform="matrix(1 0 0 1 220.687 1458)">20</text></g><g><text fill="#595959" font-family="Aptos Narrow,Aptos Narrow_MSFontService,sans-serif" font-weight="400" font-stretch="semi-condensed" font-size="41" transform="matrix(1 0 0 1 220.687 1295)">30</text></g><g><text fill="#595959" font-family="Aptos Narrow,Aptos Narrow_MSFontService,sans-serif" font-weight="400" font-stretch="semi-condensed" font-size="41" transform="matrix(1 0 0 1 220.687 1133)">40</text></g><g><text fill="#595959" font-family="Aptos Narrow,Aptos Narrow_MSFontService,sans-serif" font-weight="400" font-stretch="semi-condensed" font-size="41" transform="matrix(1 0 0 1 220.687 970)">50</text></g><g><text fill="#595959" font-family="Aptos Narrow,Aptos Narrow_MSFontService,sans-serif" font-weight="400" font-stretch="semi-condensed" font-size="41" transform="matrix(1 0 0 1 220.687 807)">60</text></g><g><text fill="#595959" font-family="Aptos Narrow,Aptos Narrow_MSFontService,sans-serif" font-weight="400" font-stretch="semi-condensed" font-size="41" transform="matrix(1 0 0 1 220.687 645)">70</text></g><g><text fill="#595959" font-family="Aptos Narrow,Aptos Narrow_MSFontService,sans-serif" font-weight="400" font-stretch="semi-condensed" font-size="41" transform="matrix(1 0 0 1 220.687 482)">80</text></g><g><text fill="#595959" font-family="Aptos Narrow,Aptos Narrow_MSFontService,sans-serif" font-weight="400" font-stretch="semi-condensed" font-size="41" transform="matrix(1 0 0 1 220.687 319)">90</text></g><g><text fill="#595959" font-family="Aptos Narrow,Aptos Narrow_MSFontService,sans-serif" font-weight="400" font-stretch="semi-condensed" font-size="41" transform="matrix(1 0 0 1 290.121 1836)">0</text></g><g><text fill="#595959" font-family="Aptos Narrow,Aptos Narrow_MSFontService,sans-serif" font-weight="400" font-stretch="semi-condensed" font-size="41" transform="matrix(1 0 0 1 713.156 1836)">20</text></g><g><text fill="#595959" font-family="Aptos Narrow,Aptos Narrow_MSFontService,sans-serif" font-weight="400" font-stretch="semi-condensed" font-size="41" transform="matrix(1 0 0 1 1146.64 1836)">40</text></g><g><text fill="#595959" font-family="Aptos Narrow,Aptos Narrow_MSFontService,sans-serif" font-weight="400" font-stretch="semi-condensed" font-size="41" transform="matrix(1 0 0 1 1580.13 1836)">60</text></g><g><text fill="#595959" font-family="Aptos Narrow,Aptos Narrow_MSFontService,sans-serif" font-weight="400" font-stretch="semi-condensed" font-size="41" transform="matrix(1 0 0 1 2013.61 1836)">80</text></g><g><text fill="#595959" font-family="Aptos Narrow,Aptos Narrow_MSFontService,sans-serif" font-weight="400" font-stretch="semi-condensed" font-size="41" transform="matrix(1 0 0 1 2436.65 1836)">100</text></g><g><text fill="#595959" font-family="Aptos Narrow,Aptos Narrow_MSFontService,sans-serif" font-weight="400" font-stretch="semi-condensed" font-size="41" transform="matrix(1 0 0 1 2870.13 1836)">120</text></g><g><text fill="#595959" font-family="Aptos Narrow,Aptos Narrow_MSFontService,sans-serif" font-weight="400" font-stretch="semi-condensed" font-size="41" transform="matrix(1 0 0 1 3303.61 1836)">140</text></g><g><text fill="#595959" font-family="Aptos Narrow,Aptos Narrow_MSFontService,sans-serif" font-weight="400" font-stretch="semi-condensed" font-size="41" transform="matrix(1 0 0 1 3737.1 1836)">160</text></g><g><text fill="#595959" font-family="Aptos Narrow,Aptos Narrow_MSFontService,sans-serif" font-style="italic" font-weight="400" font-stretch="semi-condensed" font-size="55" transform="matrix(6.12323e-17 -1 1 6.12323e-17 191.79 1262)">Время расчета, мс</text></g><g><text fill="#595959" font-family="Aptos Narrow,Aptos Narrow_MSFontService,sans-serif" font-style="italic" font-weight="400" font-stretch="semi-condensed" font-size="55" transform="matrix(1 0 0 1 1728.13 1914)">Количество потоков, шт</text></g><g><text fill="#595959" font-family="Aptos Narrow,Aptos Narrow_MSFontService,sans-serif" font-weight="400" font-stretch="semi-condensed" font-size="73" transform="matrix(1 0 0 1 600.639 141)">Зависимость времени расчета определенного интеграла от количества задействованных </text></g><g><text fill="#595959" font-family="Aptos Narrow,Aptos Narrow_MSFontService,sans-serif" font-weight="400" font-stretch="semi-condensed" font-size="73" transform="matrix(1 0 0 1 1802.43 230)">процессов</text></g><rect x="83.5" y="37.5" width="3767" height="1949" stroke="#D9D9D9" stroke-width="3.4375" stroke-linejoin="round" stroke-miterlimit="10" fill="none"/></g></svg>